<svg width="352" height="119" viewBox="0 0 352 119" fill="none" xmlns="http://www.w3.org/2000/svg">
<path d="M93.3998 17.1H86.7998V23.7H93.3998V17.1Z" fill="#FAB50D"/>
<path d="M94.3999 0H89.3999V5H94.3999V0Z" fill="#911E76"/>
<path d="M103 7.20001H94.7002V15.5H103V7.20001Z" fill="#CB2246"/>
<path d="M91.0998 35.8V27.5H82.7998V19.2H79.8998C72.3998 19.2 66.2998 25.3 66.2998 32.8V106.2C66.2998 113.1 71.8998 118.6 78.6998 118.6C85.4998 118.6 91.0998 113 91.0998 106.2V44.1H82.7998V35.8H91.0998ZM82.7998 35.8H74.4998V27.5H82.7998V35.8Z" fill="url(#paint0_linear_213_142)"/>
<path d="M12.4 117.1C5.5 117.1 0 111.5 0 104.7V79.8C0 72.9 5.6 67.4 12.4 67.4C19.3 67.4 24.8 73 24.8 79.8V104.7C24.8 111.5 19.2 117.1 12.4 117.1Z" fill="url(#paint1_linear_213_142)"/>
<path d="M44.2999 117.1C37.3999 117.1 31.8999 111.5 31.8999 104.7V46.7C31.8999 39.8 37.4999 34.3 44.2999 34.3C51.1999 34.3 56.6999 39.9 56.6999 46.7V104.7C56.7999 111.5 51.1999 117.1 44.2999 117.1Z" fill="url(#paint2_linear_213_142)"/>
<path d="M154.8 96.1C154.8 97.1 154.4 98 153.7 98.8C153 99.5 152.1 99.9 151.1 99.9C150.1 99.9 149.2 99.5 148.5 98.8C147.8 98.1 147.4 97.2 147.4 96.1V77.5C147.4 73.4 145.9 69.8 143 66.9C140.1 64 136.6 62.5 132.5 62.5C128.4 62.5 124.9 64 122 66.9C119.1 69.8 117.6 73.4 117.6 77.5V96.1C117.6 97.1 117.2 98 116.5 98.8C115.8 99.5 114.9 99.9 113.9 99.9C112.9 99.9 112 99.5 111.3 98.8C110.6 98.1 110.2 97.2 110.2 96.1V77.5C110.2 71.3 112.4 66 116.7 61.7C121.1 57.3 126.4 55.2 132.5 55.2C138.7 55.2 144 57.4 148.3 61.7C152.7 66.1 154.8 71.3 154.8 77.5V96.1Z" fill="#878787"/>
<path d="M200 58.9C200 57.9 200.4 57 201.1 56.2C201.8 55.5 202.7 55.1 203.7 55.1C204.7 55.1 205.6 55.5 206.3 56.2C207 56.9 207.4 57.8 207.4 58.9V77.5C207.4 83.7 205.2 88.9 200.9 93.3C196.5 97.7 191.3 99.9 185.1 99.9C178.9 99.9 173.7 97.7 169.3 93.3C164.9 88.9 162.8 83.7 162.8 77.5V58.8C162.8 57.8 163.2 56.9 163.9 56.1C164.6 55.4 165.5 55 166.5 55C167.5 55 168.4 55.4 169.1 56.1C169.8 56.8 170.2 57.7 170.2 58.8V77.5C170.2 81.6 171.7 85.1 174.6 88C177.5 90.9 181 92.4 185.1 92.4C189.2 92.4 192.7 90.9 195.6 88C198.5 85.1 200 81.6 200 77.5V58.9Z" fill="#878787"/>
<path d="M221.8 93.3C217.4 88.9 215.3 83.7 215.3 77.5V47.6C215.3 46.6 215.7 45.7 216.4 45C217.1 44.3 218 43.9 219 43.9C220 43.9 220.9 44.3 221.6 45C222.3 45.7 222.7 46.6 222.7 47.6V60.8C227 57 231.9 55.1 237.6 55.1C243.8 55.1 249.1 57.3 253.4 61.6C257.8 66 259.9 71.2 259.9 77.4C259.9 83.6 257.7 88.8 253.4 93.2C249 97.6 243.8 99.8 237.6 99.8C231.5 99.9 226.2 97.7 221.8 93.3ZM237.7 92.4C241.8 92.4 245.3 90.9 248.2 88C251.1 85.1 252.6 81.6 252.6 77.5C252.6 73.4 251.1 69.8 248.2 66.9C245.3 64 241.8 62.5 237.7 62.5C233.6 62.5 230.1 64 227.2 66.9C224.3 69.8 222.8 73.4 222.8 77.5C222.8 81.6 224.3 85.1 227.2 88C230 91 233.5 92.4 237.7 92.4Z" fill="#878787"/>
<path d="M300.9 88.2C301.9 88.3 302.8 88.7 303.4 89.5C304.1 90.3 304.3 91.2 304.3 92.2C304.2 93.2 303.8 94.1 303 94.7C300.7 96.3 298.2 97.6 295.5 98.5C292.8 99.4 289.9 99.8 286.8 99.8C280.4 99.8 275 97.6 270.6 93.2C266.2 88.8 264.1 83.6 264.1 77.4C264.1 71.2 266.3 65.9 270.6 61.6C275 57.2 280.3 55.1 286.4 55.1C292.6 55.1 297.9 57.3 302.2 61.6C306.6 66 308.7 71.2 308.7 77.4C308.7 78.4 308.3 79.3 307.6 80C306.9 80.7 306 81.1 305 81.1H271.9C272.6 83.7 273.9 86 275.8 87.9C278.7 90.8 282.3 92.3 286.7 92.3C289 92.3 291.1 92 292.9 91.4C294.8 90.8 296.5 90 298.1 88.9C299 88.3 299.9 88.1 300.9 88.2ZM271.9 73.8H300.8C300.1 71.2 298.8 68.9 296.9 67C294 64.1 290.5 62.6 286.4 62.6C282.3 62.6 278.8 64.1 275.9 67C273.9 68.9 272.6 71.1 271.9 73.8Z" fill="#878787"/>
<path d="M351.4 64.2C351.4 65.2 351.1 66 350.4 66.7C349.7 67.4 348.9 67.8 347.9 67.8C346.9 67.8 346.1 67.5 345.4 66.8C343.9 65.3 342 64.2 339.8 63.4C337.5 62.6 335.1 62.2 332.4 62.1C328.6 62.1 325.5 62.8 323 64.1C320.9 65.3 319.8 66.7 319.8 68.3C319.8 70.3 320.8 71.7 322.7 72.5C324.7 73.3 327.9 73.7 332.5 73.8C338.2 73.9 342.3 74.3 344.7 75.2C349.6 77 352 80.7 352 86.3C352 90.5 350 93.8 346 96.3C342.4 98.5 338 99.7 332.6 99.7C329 99.7 325.7 99.2 322.5 98C319.3 96.8 316.4 95.1 314 92.9C313.3 92.2 312.9 91.4 312.9 90.4C312.8 89.4 313.2 88.6 313.8 87.9C314.5 87.2 315.3 86.8 316.3 86.7C317.3 86.7 318.1 87 318.8 87.6C320.5 89.2 322.5 90.4 324.9 91.2C327.3 92.1 329.8 92.5 332.5 92.5C336.5 92.5 339.7 91.7 342.1 90.1C343.9 89 344.7 87.7 344.7 86.2C344.7 84 343.8 82.5 342.1 81.8C340.5 81.2 337.2 80.8 332.3 80.8C326.8 80.7 322.6 80.2 319.8 79C314.9 77 312.5 73.4 312.5 68.1C312.5 63.6 314.8 60.1 319.4 57.6C323 55.7 327.3 54.7 332.2 54.7C335.7 54.7 339 55.3 342 56.4C345.1 57.5 347.8 59.2 350 61.3C351 62.4 351.4 63.2 351.4 64.2Z" fill="#878787"/>
<defs>
<linearGradient id="paint0_linear_213_142" x1="101.436" y1="29.9768" x2="56.5107" y2="107.79" gradientUnits="userSpaceOnUse">
<stop stop-color="#911D76" stop-opacity="0.6"/>
<stop offset="0.9041" stop-color="#911D76"/>
</linearGradient>
<linearGradient id="paint1_linear_213_142" x1="23.9687" y1="72.1546" x2="0.773495" y2="112.33" gradientUnits="userSpaceOnUse">
<stop stop-color="#FFD200"/>
<stop offset="0.2687" stop-color="#FCBF00"/>
<stop offset="0.7491" stop-color="#F39200"/>
</linearGradient>
<linearGradient id="paint2_linear_213_142" x1="63.1043" y1="43.1532" x2="25.5572" y2="108.187" gradientUnits="userSpaceOnUse">
<stop stop-color="#D12449" stop-opacity="0.6"/>
<stop offset="0.0377201" stop-color="#D12449" stop-opacity="0.6184"/>
<stop offset="0.818" stop-color="#D12449"/>
</linearGradient>
</defs>
</svg>
